<?xml version="1.0" encoding="windows-1252"?>
<!-- Generator: Adobe Illustrator 19.1.1, SVG Export Plug-In . SVG Version: 6.00 Build 0)  -->
<svg version="1.1" xmlns="http://www.w3.org/2000/svg" xmlns:xlink="http://www.w3.org/1999/xlink" x="0px" y="0px" viewBox="0 0 48 48" style="enable-background:new 0 0 48 48;" xml:space="preserve"><div xmlns="" id="saka-gui-root"><div><div><style/></div></div></div>
<g>
	<line style="fill:none;stroke:#FF3D00;stroke-width:2;stroke-miterlimit:10;" x1="2" y1="35" x2="10" y2="35"/>
	<line style="fill:none;stroke:#FF3D00;stroke-width:2;stroke-miterlimit:10;" x1="2" y1="32" x2="10" y2="32"/>
	<line style="fill:none;stroke:#FF3D00;stroke-width:2;stroke-miterlimit:10;" x1="2" y1="29" x2="10" y2="29"/>
</g>
<g>
	<line style="fill:none;stroke:#FF9E80;stroke-width:2;stroke-miterlimit:10;" x1="2" y1="26" x2="10" y2="26"/>
	<line style="fill:none;stroke:#FF9E80;stroke-width:2;stroke-miterlimit:10;" x1="2" y1="23" x2="10" y2="23"/>
</g>
<g>
	<line style="fill:none;stroke:#E6EE9C;stroke-width:2;stroke-miterlimit:10;" x1="29" y1="26" x2="37" y2="26"/>
	<line style="fill:none;stroke:#E6EE9C;stroke-width:2;stroke-miterlimit:10;" x1="29" y1="23" x2="37" y2="23"/>
</g>
<line style="fill:none;stroke:#F8BBD0;stroke-width:2;stroke-miterlimit:10;" x1="20" y1="26" x2="28" y2="26"/>
<g>
	<line style="fill:none;stroke:#F8BBD0;stroke-width:2;stroke-miterlimit:10;" x1="20" y1="23" x2="28" y2="23"/>
	<line style="fill:none;stroke:#F8BBD0;stroke-width:2;stroke-miterlimit:10;" x1="20" y1="20" x2="28" y2="20"/>
	<line style="fill:none;stroke:#F8BBD0;stroke-width:2;stroke-miterlimit:10;" x1="20" y1="17" x2="28" y2="17"/>
</g>
<g>
	<line style="fill:none;stroke:#FFEB3B;stroke-width:2;stroke-miterlimit:10;" x1="11" y1="35" x2="19" y2="35"/>
	<line style="fill:none;stroke:#FFEB3B;stroke-width:2;stroke-miterlimit:10;" x1="11" y1="32" x2="19" y2="32"/>
	<line style="fill:none;stroke:#FFEB3B;stroke-width:2;stroke-miterlimit:10;" x1="11" y1="29" x2="19" y2="29"/>
</g>
<g>
	<line style="fill:none;stroke:#FF4081;stroke-width:2;stroke-miterlimit:10;" x1="20" y1="35" x2="28" y2="35"/>
	<line style="fill:none;stroke:#FF4081;stroke-width:2;stroke-miterlimit:10;" x1="20" y1="32" x2="28" y2="32"/>
	<line style="fill:none;stroke:#FF4081;stroke-width:2;stroke-miterlimit:10;" x1="20" y1="29" x2="28" y2="29"/>
</g>
<g>
	<line style="fill:none;stroke:#CDDC39;stroke-width:2;stroke-miterlimit:10;" x1="29" y1="35" x2="37" y2="35"/>
	<line style="fill:none;stroke:#CDDC39;stroke-width:2;stroke-miterlimit:10;" x1="29" y1="32" x2="37" y2="32"/>
	<line style="fill:none;stroke:#CDDC39;stroke-width:2;stroke-miterlimit:10;" x1="29" y1="29" x2="37" y2="29"/>
</g>
<g>
	<line style="fill:none;stroke:#4FC3F7;stroke-width:2;stroke-miterlimit:10;" x1="38" y1="35" x2="46" y2="35"/>
	<line style="fill:none;stroke:#4FC3F7;stroke-width:2;stroke-miterlimit:10;" x1="38" y1="32" x2="46" y2="32"/>
	<line style="fill:none;stroke:#4FC3F7;stroke-width:2;stroke-miterlimit:10;" x1="38" y1="29" x2="46" y2="29"/>
</g>
<g>
	<line style="fill:none;stroke:#B3E5FC;stroke-width:2;stroke-miterlimit:10;" x1="38" y1="26" x2="46" y2="26"/>
	<line style="fill:none;stroke:#B3E5FC;stroke-width:2;stroke-miterlimit:10;" x1="38" y1="23" x2="46" y2="23"/>
	<line style="fill:none;stroke:#B3E5FC;stroke-width:2;stroke-miterlimit:10;" x1="38" y1="20" x2="46" y2="20"/>
	<line style="fill:none;stroke:#B3E5FC;stroke-width:2;stroke-miterlimit:10;" x1="38" y1="17" x2="46" y2="17"/>
	<line style="fill:none;stroke:#B3E5FC;stroke-width:2;stroke-miterlimit:10;" x1="38" y1="14" x2="46" y2="14"/>
</g>
</svg>