<?xml version="1.0" encoding="iso-8859-1"?>
<!-- Generator: Adobe Illustrator 19.0.0, SVG Export Plug-In . SVG Version: 6.00 Build 0)  -->
<svg version="1.1" id="Layer_1" xmlns="http://www.w3.org/2000/svg" xmlns:xlink="http://www.w3.org/1999/xlink" x="0px" y="0px"
	 viewBox="0 0 510.602 510.602" style="enable-background:new 0 0 510.602 510.602;" xml:space="preserve">
<path style="fill:#40596B;" d="M9.968,368.368v20.267c0,16,12.8,28.8,28.8,28.8h433.067c16,0,28.8-12.8,28.8-28.8v-20.267H9.968z"/>
<path style="fill:#F2F2F2;" d="M498.501,358.768l-75.733-151.467H87.834L12.101,358.768c-6.4,11.733,2.133,24.533,14.933,24.533
	h456.533C496.368,383.301,504.901,370.501,498.501,358.768z"/>
<path style="fill:#CDD6E0;" d="M504.901,182.768l-101.333-68.267c-21.333-13.867-45.867-21.333-71.467-21.333h-153.6
	c-25.6,0-50.133,7.467-71.467,21.333L5.701,182.768c-10.667,7.467-5.333,24.533,7.467,24.533h484.267
	C510.234,207.301,515.568,190.234,504.901,182.768z"/>
<polygon style="fill:#54C0EB;" points="405.701,207.301 104.901,207.301 47.301,348.101 463.301,348.101 "/>
<ellipse style="fill:#FFD15C;" cx="59.034" cy="367.301" rx="8.533" ry="5.333"/>
<ellipse style="fill:#FF7058;" cx="89.968" cy="367.301" rx="8.533" ry="5.333"/>
<path style="fill:#ACB3BA;" d="M304.368,133.701h-23.467c-6.4-4.267-16-6.4-25.6-6.4c-9.6,0-19.2,2.133-25.6,7.467h-23.467
	l-19.2,17.067h33.067c0,11.733,13.867,23.467,35.2,23.467c22.4,0,35.2-11.733,35.2-23.467h33.067L304.368,133.701z"/>
<g>
</g>
<g>
</g>
<g>
</g>
<g>
</g>
<g>
</g>
<g>
</g>
<g>
</g>
<g>
</g>
<g>
</g>
<g>
</g>
<g>
</g>
<g>
</g>
<g>
</g>
<g>
</g>
<g>
</g>
</svg>
